<mxfile host="app.diagrams.net" modified="2022-04-24T17:26:35.439Z" agent="5.0 (Macintosh; Intel Mac OS X 10_15_7) AppleWebKit/605.1.15 (KHTML, like Gecko) Version/14.1.2 Safari/605.1.15" etag="WAuaMUJzznWJTcSpAzL_" version="17.4.5" type="github">
  <diagram id="io6cInEX-3EckjZlrs5G" name="Page-1">
    <mxGraphModel dx="901" dy="614" grid="1" gridSize="10" guides="1" tooltips="1" connect="1" arrows="1" fold="1" page="1" pageScale="1" pageWidth="2339" pageHeight="3300" math="0" shadow="0">
      <root>
        <mxCell id="0" />
        <mxCell id="1" parent="0" />
        <mxCell id="RXuY3xGkhf_gVc-PAO3l-1" value="Bulk Notification UI" style="rounded=1;whiteSpace=wrap;html=1;" vertex="1" parent="1">
          <mxGeometry x="70" y="90" width="90" height="60" as="geometry" />
        </mxCell>
        <mxCell id="RXuY3xGkhf_gVc-PAO3l-2" value="LB &amp;amp;&amp;nbsp;&lt;br&gt;Rate&lt;br&gt;Limiter" style="whiteSpace=wrap;html=1;rounded=1;" vertex="1" parent="1">
          <mxGeometry x="230" y="10" width="40" height="220" as="geometry" />
        </mxCell>
        <mxCell id="RXuY3xGkhf_gVc-PAO3l-4" value="" style="endArrow=classic;startArrow=classic;html=1;rounded=0;entryX=0;entryY=0.5;entryDx=0;entryDy=0;" edge="1" parent="1" target="RXuY3xGkhf_gVc-PAO3l-2">
          <mxGeometry width="50" height="50" relative="1" as="geometry">
            <mxPoint x="160" y="120" as="sourcePoint" />
            <mxPoint x="210" y="70" as="targetPoint" />
          </mxGeometry>
        </mxCell>
        <mxCell id="RXuY3xGkhf_gVc-PAO3l-5" value="" style="endArrow=classic;startArrow=classic;html=1;rounded=0;entryX=0;entryY=0.5;entryDx=0;entryDy=0;" edge="1" parent="1">
          <mxGeometry width="50" height="50" relative="1" as="geometry">
            <mxPoint x="270" y="119.5" as="sourcePoint" />
            <mxPoint x="340" y="119.5" as="targetPoint" />
          </mxGeometry>
        </mxCell>
        <mxCell id="RXuY3xGkhf_gVc-PAO3l-6" value="Bulk Notification&amp;nbsp;&lt;br&gt;Service" style="rounded=1;whiteSpace=wrap;html=1;" vertex="1" parent="1">
          <mxGeometry x="340" y="90" width="100" height="60" as="geometry" />
        </mxCell>
        <mxCell id="RXuY3xGkhf_gVc-PAO3l-7" value="&amp;nbsp;LB &amp;amp;&amp;nbsp;&lt;br&gt;Rate&lt;br&gt;Limiter" style="whiteSpace=wrap;html=1;rounded=1;" vertex="1" parent="1">
          <mxGeometry x="200" y="460" width="40" height="235" as="geometry" />
        </mxCell>
        <mxCell id="RXuY3xGkhf_gVc-PAO3l-8" value="Notification Client" style="rounded=1;whiteSpace=wrap;html=1;" vertex="1" parent="1">
          <mxGeometry x="40" y="550" width="90" height="60" as="geometry" />
        </mxCell>
        <mxCell id="RXuY3xGkhf_gVc-PAO3l-9" value="" style="endArrow=classic;startArrow=classic;html=1;rounded=0;entryX=0;entryY=0.5;entryDx=0;entryDy=0;" edge="1" parent="1">
          <mxGeometry width="50" height="50" relative="1" as="geometry">
            <mxPoint x="130" y="579.5" as="sourcePoint" />
            <mxPoint x="200" y="579.5" as="targetPoint" />
          </mxGeometry>
        </mxCell>
        <mxCell id="RXuY3xGkhf_gVc-PAO3l-10" value="Notification Service" style="rounded=1;whiteSpace=wrap;html=1;" vertex="1" parent="1">
          <mxGeometry x="310" y="555" width="90" height="60" as="geometry" />
        </mxCell>
        <mxCell id="RXuY3xGkhf_gVc-PAO3l-14" value="" style="endArrow=classic;startArrow=classic;html=1;rounded=0;entryX=0;entryY=0.5;entryDx=0;entryDy=0;" edge="1" parent="1">
          <mxGeometry width="50" height="50" relative="1" as="geometry">
            <mxPoint x="240" y="579.5" as="sourcePoint" />
            <mxPoint x="310" y="579.5" as="targetPoint" />
          </mxGeometry>
        </mxCell>
        <mxCell id="RXuY3xGkhf_gVc-PAO3l-15" value="KAFKA" style="rounded=1;whiteSpace=wrap;html=1;" vertex="1" parent="1">
          <mxGeometry x="324" y="330" width="90" height="60" as="geometry" />
        </mxCell>
        <mxCell id="RXuY3xGkhf_gVc-PAO3l-16" value="" style="endArrow=classic;html=1;rounded=0;entryX=0.4;entryY=1;entryDx=0;entryDy=0;entryPerimeter=0;" edge="1" parent="1" target="RXuY3xGkhf_gVc-PAO3l-15">
          <mxGeometry width="50" height="50" relative="1" as="geometry">
            <mxPoint x="360" y="555" as="sourcePoint" />
            <mxPoint x="410" y="505" as="targetPoint" />
          </mxGeometry>
        </mxCell>
        <mxCell id="RXuY3xGkhf_gVc-PAO3l-17" value="" style="endArrow=classic;html=1;rounded=0;entryX=0.644;entryY=-0.033;entryDx=0;entryDy=0;entryPerimeter=0;exitX=0.41;exitY=1.05;exitDx=0;exitDy=0;exitPerimeter=0;" edge="1" parent="1" source="RXuY3xGkhf_gVc-PAO3l-6" target="RXuY3xGkhf_gVc-PAO3l-15">
          <mxGeometry width="50" height="50" relative="1" as="geometry">
            <mxPoint x="430" y="160" as="sourcePoint" />
            <mxPoint x="540" y="340" as="targetPoint" />
          </mxGeometry>
        </mxCell>
        <mxCell id="RXuY3xGkhf_gVc-PAO3l-18" value="" style="endArrow=classic;html=1;rounded=0;" edge="1" parent="1">
          <mxGeometry width="50" height="50" relative="1" as="geometry">
            <mxPoint x="414" y="360" as="sourcePoint" />
            <mxPoint x="490" y="360" as="targetPoint" />
          </mxGeometry>
        </mxCell>
        <mxCell id="RXuY3xGkhf_gVc-PAO3l-19" value="Notification Priortizer and Validator" style="rounded=1;whiteSpace=wrap;html=1;" vertex="1" parent="1">
          <mxGeometry x="490" y="330" width="90" height="60" as="geometry" />
        </mxCell>
        <mxCell id="RXuY3xGkhf_gVc-PAO3l-20" value="" style="endArrow=classic;html=1;rounded=0;" edge="1" parent="1">
          <mxGeometry width="50" height="50" relative="1" as="geometry">
            <mxPoint x="580" y="359.5" as="sourcePoint" />
            <mxPoint x="656" y="359.5" as="targetPoint" />
          </mxGeometry>
        </mxCell>
      </root>
    </mxGraphModel>
  </diagram>
</mxfile>
